<svg xmlns="http://www.w3.org/2000/svg" width="26.839" height="26.839" viewBox="0 0 26.839 26.839"><g data-name="Group 3048"><path data-name="Path 94" d="M26.42 11.74c-.216-.136-1.909-1.15-2.581-1.457l-.834-2.013c.248-.665.721-2.532.795-2.856a.9.9 0 0 0-.24-.832l-1.3-1.3a.9.9 0 0 0-.832-.24c-.245.056-2.161.536-2.856.795l-2.016-.838C16.262 2.357 15.278.704 15.1.419a.894.894 0 0 0-.759-.42H12.5a.9.9 0 0 0-.76.42c-.14.216-1.15 1.909-1.457 2.58l-2.013.835c-.67-.248-2.532-.721-2.856-.795a.9.9 0 0 0-.832.24l-1.3 1.3a.9.9 0 0 0-.24.832c.056.245.536 2.161.795 2.856L3 10.283c-.644.294-2.3 1.278-2.581 1.457a.894.894 0 0 0-.419.759v1.844a.9.9 0 0 0 .419.758c.216.136 1.909 1.15 2.581 1.457l.834 2.013c-.248.665-.721 2.532-.795 2.856a.9.9 0 0 0 .24.832l1.3 1.3a.9.9 0 0 0 .832.24c.245-.056 2.161-.536 2.856-.795l2.013.834c.294.644 1.278 2.3 1.457 2.581a.9.9 0 0 0 .758.419h1.844a.9.9 0 0 0 .758-.419c.136-.216 1.15-1.909 1.457-2.581l2.013-.834c.665.248 2.532.721 2.856.795a.894.894 0 0 0 .832-.24l1.3-1.3a.9.9 0 0 0 .24-.832c-.056-.245-.536-2.161-.795-2.856l.834-2.013c.644-.294 2.3-1.278 2.581-1.457a.9.9 0 0 0 .419-.758v-1.844a.9.9 0 0 0-.414-.759zm-13 7.53a5.85 5.85 0 1 1 5.85-5.85 5.857 5.857 0 0 1-5.85 5.85z" fill="#2e303b"/></g></svg>