<svg xmlns="http://www.w3.org/2000/svg" width="21.685" height="14.457" viewBox="0 0 21.685 14.457"><path data-name="Icon awesome-eye" d="M21.554 6.679A12.075 12.075 0 0 0 10.843 0 12.077 12.077 0 0 0 .131 6.679a1.218 1.218 0 0 0 0 1.1 12.075 12.075 0 0 0 10.712 6.679 12.077 12.077 0 0 0 10.712-6.679 1.218 1.218 0 0 0-.001-1.1zM10.843 12.65a5.421 5.421 0 1 1 5.421-5.421 5.421 5.421 0 0 1-5.421 5.421zm0-9.035a3.588 3.588 0 0 0-.953.143 1.8 1.8 0 0 1-2.519 2.519 3.606 3.606 0 1 0 3.471-2.661z" fill="#fff"/></svg>