<svg id="Layer_1" xmlns="http://www.w3.org/2000/svg" viewBox="0 0 31 29.1"><style>.st0{opacity:.7}</style><g id="Icon_feather-volume-1" transform="translate(1.5 1.5)"><g id="Icon_feather-volume-1-2" class="st0"><path d="M16.8 27.6c-.3 0-.7-.1-.9-.3L7 20.2H0c-.8 0-1.5-.7-1.5-1.5V7.5C-1.5 6.6-.8 6 0 6h6.9l8.9-7.1c.5-.4 1.1-.4 1.6-.2.6.2.9.7.9 1.3v26.1c0 .6-.3 1.1-.9 1.4-.2.1-.4.1-.6.1zM1.5 17.2h6c.3 0 .7.1.9.3l6.9 5.5V3.1L8.4 8.6c-.3.3-.6.4-.9.4h-6v8.2z" id="Path_5"/><path d="M25.3 21.2c-.4 0-.8-.1-1.1-.4-.6-.6-.6-1.5 0-2.1 3.1-3.1 3.1-8 0-11.1-.6-.6-.6-1.5 0-2.1.6-.6 1.5-.6 2.1 0 4.2 4.2 4.2 11.1 0 15.3-.3.2-.6.4-1 .4z" id="Path_6"/></g></g></svg>