<svg xmlns="http://www.w3.org/2000/svg" viewBox="0 0 25.7 25.7"><path d="M21.75 25.65H3.95c-2.2 0-3.9-1.8-3.9-3.9v-5.1c0-.7.6-1.3 1.4-1.3s1.4.6 1.4 1.3v5.1c0 .7.5 1.2 1.2 1.2h17.9c.7 0 1.2-.5 1.2-1.2v-5.1c0-.7.6-1.3 1.3-1.3s1.3.6 1.3 1.3v5.1c-.1 2.2-1.8 3.9-4 3.9zM19.25 9.05c-.3 0-.7-.1-1-.4l-5.4-5.4-5.4 5.4c-.5.5-1.4.5-1.9 0s-.6-1.3 0-1.9l6.3-6.4c.5-.5 1.4-.5 1.9 0l6.4 6.4c.5.5.5 1.4 0 1.9-.2.3-.6.4-.9.4z"/><path d="M12.85 18.05c-.7 0-1.4-.6-1.4-1.3V1.35c0-.7.6-1.4 1.4-1.4s1.4.6 1.4 1.4v15.3c-.1.8-.7 1.4-1.4 1.4z"/></svg>