<svg xmlns="http://www.w3.org/2000/svg" width="36.791" height="27.965" viewBox="0 0 36.791 27.965"><path d="M25.516.004H3.56A3.564 3.564 0 000 3.56v12.759a3.564 3.564 0 003.56 3.56h3.2l.068 3.215a1.188 1.188 0 001.9.923l5.488-4.137h11.3a3.564 3.564 0 003.56-3.56V3.56a3.564 3.564 0 00-3.56-3.556zm-6.9 14.167h-8.157a1.187 1.187 0 110-2.374h8.159a1.187 1.187 0 110 2.374zm2.151-5.192H8.308a1.187 1.187 0 010-2.374h12.461a1.187 1.187 0 010 2.374zm16.022 2v9.791a3.56 3.56 0 01-3.56 3.56h-3.2l-.062 2.474a1.189 1.189 0 01-1.187 1.16c-.469 0-.126.134-6.146-3.635h-5.2a3.545 3.545 0 01-2.366-.9 1.187 1.187 0 01.788-2.075h10.8a4.169 4.169 0 004.169-4.169V8.604a1.187 1.187 0 011.187-1.187h1.224a3.56 3.56 0 013.555 3.561z" fill="#2e303b"/></svg>