<svg xmlns="http://www.w3.org/2000/svg" width="28.007" height="28.007" viewBox="0 0 28.007 28.007"><path data-name="Path 90" d="M28.007 18.954a9.081 9.081 0 00-4.98-8.086 12.349 12.349 0 01-12.159 12.159 9.056 9.056 0 0012.692 3.721l4.407 1.219-1.219-4.407a9.021 9.021 0 001.259-4.606zm0 0" fill="#2e303b"/><path data-name="Path 91" d="M21.388 10.694A10.694 10.694 0 101.483 16.13L.039 21.349l5.219-1.443a10.7 10.7 0 0016.13-9.211zM9.053 8.205H7.412a3.282 3.282 0 115.5 2.422L11.515 11.9v1.28H9.874v-2L11.8 9.417a1.624 1.624 0 00.534-1.211 1.641 1.641 0 10-3.282 0zm.821 6.619h1.641v1.641H9.874zm0 0" fill="#2e303b"/></svg>