<svg xmlns="http://www.w3.org/2000/svg" width="23.397" height="23.167" viewBox="0 0 23.397 23.167"><g data-name="interface (1)"><g data-name="Group 3108" fill="#fff"><path data-name="Path 111" d="M22.816 23.167h-7.818a.581.581 0 01-.581-.581v-1.1a.581.581 0 01.581-.581h4.531l-6.465-6.473a.581.581 0 010-.821l.781-.781a.581.581 0 01.821 0l6.469 6.469v-4.531a.581.581 0 01.581-.581h1.1a.581.581 0 01.581.581v7.818a.581.581 0 01-.581.581z"/><path data-name="Path 112" d="M3.868 20.901H8.4a.581.581 0 01.581.581v1.1a.581.581 0 01-.581.581H.581A.581.581 0 010 22.586v-7.818a.581.581 0 01.581-.581h1.1a.581.581 0 01.581.581v4.531l6.473-6.469a.581.581 0 01.821 0l.781.781a.581.581 0 010 .821z"/><path data-name="Path 113" d="M22.816 8.98h-1.1a.581.581 0 01-.581-.581V3.868l-6.469 6.469a.581.581 0 01-.821 0l-.781-.781a.581.581 0 010-.821l6.469-6.469h-4.531a.581.581 0 01-.581-.581v-1.1a.581.581 0 01.581-.581h7.818a.581.581 0 01.581.581v7.818a.581.581 0 01-.585.577z"/><path data-name="Path 114" d="M9.556 10.337a.581.581 0 01-.821 0L2.266 3.868v4.531a.581.581 0 01-.581.581H.581A.581.581 0 010 8.399V.581A.581.581 0 01.581 0H8.4a.581.581 0 01.581.581v1.1a.581.581 0 01-.581.581H3.868l6.469 6.469a.581.581 0 010 .821z"/></g></g></svg>