<svg data-name="business (1)" xmlns="http://www.w3.org/2000/svg" width="31" height="31" viewBox="0 0 31 31"><path data-name="Path 95" d="M14.272 8.477l.214.6h5.512l-.221-1.089a9.947 9.947 0 00-7.79-7.767L10.898 0v5.494a4.9 4.9 0 013.374 2.983z" fill="#2e303b"/><path data-name="Path 96" d="M3.6 17.664a9.987 9.987 0 0016.181-5.677l.221-1.089h-5.516c-.073.1-.822 3.633-4.5 3.633a4.511 4.511 0 01-2.5-.754z" fill="#2e303b"/><path data-name="Path 97" d="M6.2 12.493a4.516 4.516 0 01-.753-2.5c0-3.589 3.611-4.481 3.633-4.5V0L7.993.221A9.969 9.969 0 002.316 16.38z" fill="#2e303b"/><path data-name="Path 98" d="M23.674 14.652h5.449v12.715h-5.449z" fill="#2e303b"/><path data-name="Path 99" d="M16.408 23.734h5.449v3.633h-5.449z" fill="#2e303b"/><path data-name="Path 100" d="M9.143 21.918h5.449v5.449H9.143z" fill="#2e303b"/><path data-name="Path 101" d="M1.877 25.551h5.449v1.816H1.877z" fill="#2e303b"/><path data-name="Path 102" d="M0 29.184h31V31H0z" fill="#2e303b"/></svg>