<svg xmlns="http://www.w3.org/2000/svg" width="24" height="24" viewBox="0 0 24 24"><path data-name="Path 15" d="M22.258 8.935l-1.17-.2c-.1-.29-.222-.575-.352-.851l.689-.964a2.088 2.088 0 00-.227-2.7l-1.406-1.409a2.091 2.091 0 00-2.7-.226l-.968.689a9.645 9.645 0 00-.909-.375l-.194-1.147A2.094 2.094 0 0012.951 0h-1.987a2.093 2.093 0 00-2.071 1.75l-.2 1.192q-.431.157-.848.357l-.95-.684a2.1 2.1 0 00-2.708.226L2.774 4.246a2.094 2.094 0 00-.227 2.7l.7.984c-.129.281-.247.57-.347.858l-1.147.194A2.094 2.094 0 000 11.053v1.987a2.094 2.094 0 001.751 2.071l1.192.2c.1.287.224.571.357.848l-.682.948a2.088 2.088 0 00.227 2.7l1.406 1.407a2.091 2.091 0 002.7.227l.984-.7c.259.12.527.23.8.329l.2 1.17A2.094 2.094 0 0011 24h1.992a2.094 2.094 0 002.071-1.751l.2-1.171c.29-.1.575-.222.851-.352l.961.687a2.1 2.1 0 002.706-.224l1.406-1.407a2.094 2.094 0 00.227-2.7l-.69-.969a9.27 9.27 0 00.353-.85l1.169-.195A2.094 2.094 0 0024 12.993V11.01a2.073 2.073 0 00-1.742-2.075zm.336 4.059a.692.692 0 01-.578.685l-1.55.258a.758.758 0 00-.6.527 8.222 8.222 0 01-.562 1.355.758.758 0 00.055.793l.914 1.283a.692.692 0 01-.075.893l-1.406 1.406a.691.691 0 01-.892.076l-1.277-.913a.757.757 0 00-.8-.056 8.28 8.28 0 01-1.357.562.758.758 0 00-.523.6l-.263 1.552a.692.692 0 01-.685.579H11a.692.692 0 01-.685-.578l-.258-1.55a.758.758 0 00-.522-.6 8.23 8.23 0 01-1.314-.54.759.759 0 00-.792.055l-1.3.925a.664.664 0 01-.4.127.679.679 0 01-.489-.2l-1.404-1.415a.687.687 0 01-.075-.888l.908-1.263a.757.757 0 00.054-.8 8.041 8.041 0 01-.569-1.35.759.759 0 00-.6-.52l-1.571-.268a.692.692 0 01-.579-.685v-1.991a.692.692 0 01.58-.685l1.531-.258a.757.757 0 00.6-.529 8.106 8.106 0 01.552-1.358.759.759 0 00-.055-.792l-.923-1.3a.692.692 0 01.075-.893l1.414-1.403.005-.005a.673.673 0 01.485-.2.681.681 0 01.4.127l1.269.913a.756.756 0 00.8.054 8.038 8.038 0 011.349-.569.759.759 0 00.521-.6l.268-1.571a.692.692 0 01.685-.579h1.987a.692.692 0 01.685.58l.258 1.532a.758.758 0 00.53.6 8.184 8.184 0 011.408.579.758.758 0 00.794-.055l1.286-.916a.664.664 0 01.4-.127.679.679 0 01.489.2l1.409 1.409a.687.687 0 01.074.89l-.914 1.279a.758.758 0 00-.055.8 8.276 8.276 0 01.562 1.357.758.758 0 00.6.523l1.551.263a.674.674 0 01.569.675zm0 0"/><path data-name="Path 16" d="M12 7.333a4.666 4.666 0 104.666 4.666A4.672 4.672 0 0012 7.333zm0 7.926a3.26 3.26 0 113.26-3.26 3.264 3.264 0 01-3.26 3.26zm0 0"/></svg>