<svg xmlns="http://www.w3.org/2000/svg" viewBox="0 0 27.7 27.7"><path d="M13.85 18.55c-2.6 0-4.7-2.1-4.7-4.7s2.1-4.7 4.7-4.7 4.7 2.1 4.7 4.7-2.1 4.7-4.7 4.7zm0-6.9c-1.2 0-2.2 1-2.2 2.2 0 1.2 1 2.2 2.2 2.2 1.2 0 2.2-1 2.2-2.2 0-1.2-1-2.2-2.2-2.2z"/><path d="M13.95 27.75c-.9 0-1.8-.4-2.5-1-.7-.7-1-1.6-1-2.5v-.1c0-.2-.2-.5-.4-.6-.3-.1-.6-.1-.8.1-1.3 1.5-3.5 1.6-5 .3s-1.6-3.5-.3-5l.3-.3c.1-.1.2-.3.2-.5s-.1-.3-.2-.5c-.1-.1-.3-.2-.5-.2h-.2c-2 0-3.5-1.6-3.5-3.5 0-.9.4-1.8 1-2.5.7-.7 1.6-1 2.5-1h.1c.2 0 .5-.2.6-.4.1-.3.1-.6-.1-.8-.8-.7-1.2-1.5-1.2-2.5-.1-.9.2-1.8.8-2.6.6-.7 1.5-1.1 2.4-1.2 1 0 1.9.3 2.6.9l.3.3c.2.2.5.2.7.1.1 0 .1-.1.2-.1.2-.1.3-.3.3-.5v-.1c0-2 1.6-3.5 3.5-3.5 2 0 3.5 1.6 3.5 3.5v.1c0 .2.1.3.2.5.1.1.3.2.5.2s.3-.1.5-.2c.6-.7 1.5-1.1 2.4-1.2.9-.1 1.9.3 2.6.9.7.6 1.1 1.5 1.2 2.4.1.9-.2 1.8-.8 2.5l-.3.3c-.2.2-.2.5-.1.7 0 .1.1.1.1.2.1.2.3.3.5.3h.2c2 0 3.5 1.6 3.5 3.5 0 2-1.6 3.5-3.5 3.5h-.1c-.3 0-.5.2-.6.4-.1.2 0 .5.1.7.7.6 1.1 1.5 1.2 2.4.1.9-.3 1.9-.9 2.6-.6.7-1.5 1.1-2.4 1.2-1 .1-1.9-.3-2.6-.9l-.3-.3c-.3-.3-.7-.3-.9 0-.1.1-.2.3-.2.5v.2c0 .9-.4 1.8-1 2.5-.8.8-1.6 1.2-2.6 1.2zm-4.3-6.8c.4 0 .9.1 1.3.3 1.1.4 2 1.5 2 2.8v.1c0 .3.1.5.3.7.2.2.5.3.7.3.3 0 .5-.1.7-.3.2-.2.3-.5.3-.7v-.2c0-.8.3-1.6.9-2.2.6-.6 1.4-.9 2.2-1 .8 0 1.6.3 2.2.9l.1.1.1.1c.4.4 1.1.3 1.5-.1.4-.4.3-1.1-.1-1.5l-.1-.1c-.9-.9-1.2-2.3-.6-3.5v-.1c.5-1.1 1.6-1.8 2.8-1.8h.1c.6 0 1-.5 1-1 0-.6-.5-1-1-1h-.2c-1.3 0-2.4-.8-2.9-1.9 0-.1-.1-.2-.1-.3-.4-1.1-.1-2.4.7-3.2l.1-.1.2-.2c.4-.4.3-1.1-.1-1.5-.2-.2-.5-.3-.8-.3-.3 0-.5.1-.7.4l-.1.1c-.5.7-1.2 1-2.1 1-.8 0-1.6-.3-2.2-.9-.6-.6-.9-1.4-.9-2.2v-.1c0-.6-.5-1-1-1-.6 0-1 .5-1 1v.2c0 1.3-.8 2.4-1.9 2.9-.1 0-.2.1-.3.1-1.3.4-2.5.1-3.4-.8l-.1-.1-.1-.1c-.2-.2-.5-.3-.8-.3-.3 0-.5.1-.7.4-.2.2-.3.5-.2.8s.1.5.3.7l.1.1c.9.9 1.2 2.3.7 3.5-.4 1.1-1.5 2-2.8 2h-.1c-.3 0-.5.1-.7.3s-.3.5-.3.7c0 .6.5 1 1 1h.1c.8 0 1.6.3 2.2.9.6.6.9 1.4.9 2.2 0 .8-.3 1.6-.9 2.2l-.1.1c0 .2-.1.2-.1.2-.4.4-.3 1.1.1 1.5.4.4 1.1.3 1.5-.1l.1-.1c.6-.6 1.4-.9 2.2-.9z"/></svg>