<svg xmlns="http://www.w3.org/2000/svg" width="20.082" height="22.951" viewBox="0 0 20.082 22.951"><path data-name="Icon awesome-calendar-alt" d="M0 20.8a2.152 2.152 0 0 0 2.152 2.152H17.93a2.152 2.152 0 0 0 2.152-2.152V8.607H0zm14.344-8.786a.539.539 0 0 1 .538-.538h1.793a.539.539 0 0 1 .538.538v1.793a.539.539 0 0 1-.538.538h-1.793a.539.539 0 0 1-.538-.538zm0 5.738a.539.539 0 0 1 .538-.538h1.793a.539.539 0 0 1 .538.538v1.793a.539.539 0 0 1-.538.538h-1.793a.539.539 0 0 1-.538-.538zm-5.737-5.739a.539.539 0 0 1 .538-.538h1.793a.539.539 0 0 1 .538.538v1.793a.539.539 0 0 1-.538.538H9.144a.539.539 0 0 1-.538-.538zm0 5.738a.539.539 0 0 1 .538-.538h1.793a.539.539 0 0 1 .538.538v1.793a.539.539 0 0 1-.538.538H9.144a.539.539 0 0 1-.538-.538zm-5.738-5.738a.539.539 0 0 1 .538-.538H5.2a.539.539 0 0 1 .538.538v1.793a.539.539 0 0 1-.538.538H3.407a.539.539 0 0 1-.538-.538zm0 5.738a.539.539 0 0 1 .538-.538H5.2a.539.539 0 0 1 .538.538v1.793a.539.539 0 0 1-.538.538H3.407a.539.539 0 0 1-.538-.538zM17.93 2.869h-2.151V.717A.719.719 0 0 0 15.062 0h-1.435a.719.719 0 0 0-.717.717v2.152H7.172V.717A.719.719 0 0 0 6.455 0H5.021A.719.719 0 0 0 4.3.717v2.152H2.152A2.152 2.152 0 0 0 0 5.021v2.151h20.082V5.021a2.152 2.152 0 0 0-2.152-2.152z" opacity=".7"/></svg>