<svg xmlns="http://www.w3.org/2000/svg" width="22.235" height="24.551" viewBox="0 0 22.235 24.551"><path data-name="Icon ionic-md-share" d="M18.519 17.396a3.376 3.376 0 0 0-2.416.925l-8.857-5.115a4.148 4.148 0 0 0 .124-.864 4.146 4.146 0 0 0-.124-.864l8.734-5.063a3.706 3.706 0 1 0-1.18-2.714 4.124 4.124 0 0 0 .124.864L6.191 9.623a3.728 3.728 0 0 0-2.539-.987 3.667 3.667 0 0 0-3.654 3.7 3.729 3.729 0 0 0 6.256 2.714l8.8 5.12a3.094 3.094 0 0 0-.124.8 3.592 3.592 0 1 0 3.592-3.578z" fill="#fff"/></svg>