<svg xmlns="http://www.w3.org/2000/svg" width="20.136" height="20.136" viewBox="0 0 20.136 20.136"><path data-name="Icon material-content-cut" d="M7.692 5.678a3.923 3.923 0 0 0 .362-1.651 4.027 4.027 0 1 0-4.027 4.027 3.923 3.923 0 0 0 1.651-.362l2.376 2.376-2.376 2.376a3.923 3.923 0 0 0-1.651-.362 4.027 4.027 0 1 0 4.027 4.027 3.923 3.923 0 0 0-.362-1.651l2.376-2.376 7.048 7.048h3.02v-1.008zm-3.665.362a2.014 2.014 0 1 1 2.014-2.013 2.013 2.013 0 0 1-2.014 2.014zm0 12.082a2.014 2.014 0 1 1 2.014-2.014 2.013 2.013 0 0 1-2.014 2.014zm6.041-7.551a.5.5 0 1 1 .5-.5.5.5 0 0 1-.5.5zm7.048-9.565l-6.041 6.041 2.014 2.014 7.048-7.048V1.007z" fill="#fff"/></svg>