<svg xmlns="http://www.w3.org/2000/svg" width="424" height="189" viewBox="0 0 424 189"><defs><linearGradient id="a" x1="424" x2="0" y1="0" y2="189" gradientUnits="userSpaceOnUse"><stop offset="0" stop-color="#865eff"/><stop offset="1" stop-color="#ca99ff"/></linearGradient><linearGradient id="c" x1="340.82" x2="340.82" y1="-19" y2="194.68" gradientUnits="userSpaceOnUse"><stop offset="0" stop-color="#fff" stop-opacity="0"/><stop offset="1" stop-color="#fff" stop-opacity=".25"/></linearGradient><clipPath id="b"><path d="M0 8a8 8 0 018-8h408a8 8 0 018 8v173a8 8 0 01-8 8H8a8 8 0 01-8-8z"/></clipPath></defs><path fill="url(#a)" d="M0 8a8 8 0 018-8h408a8 8 0 018 8v173a8 8 0 01-8 8H8a8 8 0 01-8-8z"/><g clip-path="url(#b)"><path fill="url(#c)" d="M336.367-5L238.65 189l204.353 5.682-19-213.682z"/></g></svg>