<svg xmlns="http://www.w3.org/2000/svg" width="19.001" height="19.999" viewBox="0 0 19.001 19.999"><defs><clipPath id="a"><path data-name="Clip 2" d="M0 0h19v20H0z" fill="none"/></clipPath></defs><g data-name="Group 6"><g data-name="Group 3"><path data-name="Clip 2" d="M0 0h19v20H0z" fill="none"/><g data-name="Group 3" clip-path="url(#a)"><path data-name="Fill 1" d="M17.979 11.716a1.954 1.954 0 01-.742-2.662v-.005a1.966 1.966 0 01.739-.729 1.987 1.987 0 00.952-1.2 1.941 1.941 0 00-.2-1.507l-.67-1.168a2.03 2.03 0 00-1.236-.927 2.077 2.077 0 00-1.547.2 2.087 2.087 0 01-1.551.2 2.036 2.036 0 01-1.241-.928 2 2 0 01-.274-1 1.958 1.958 0 00-.593-1.4 2.066 2.066 0 00-1.44-.591H8.835A2.02 2.02 0 006.79 1.982a1.97 1.97 0 01-1.015 1.725 2.075 2.075 0 01-2.042 0 2.09 2.09 0 00-1.57-.208 2.034 2.034 0 00-1.25.95L.274 5.564a1.964 1.964 0 00.7 2.685l.045.026a1.963 1.963 0 01.781 2.666l-.038.058a1.89 1.89 0 01-.739.721 1.985 1.985 0 00-.952 1.2 1.942 1.942 0 00.2 1.508l.639 1.137a2.074 2.074 0 002.793.719 2.084 2.084 0 012.784.73 1.922 1.922 0 01.274 1 1.963 1.963 0 00.605 1.414 2.073 2.073 0 001.46.571h1.342a2.017 2.017 0 002.044-1.99 1.954 1.954 0 01.589-1.419 2.063 2.063 0 011.446-.591 2.035 2.035 0 011.022.268 2.074 2.074 0 002.784-.73l.675-1.137a1.954 1.954 0 00-.72-2.668l-.029-.016" fill="#4b4a5c"/></g></g><path data-name="Fill 4" d="M9.501 7.5a2.5 2.5 0 11-2.5 2.5 2.5 2.5 0 012.5-2.5" fill="#fff"/></g></svg>