<?xml version="1.0" standalone="no"?>
<!DOCTYPE svg PUBLIC "-//W3C//DTD SVG 1.1//EN" "http://www.w3.org/Graphics/SVG/1.1/DTD/svg11.dtd" >
<svg xmlns="http://www.w3.org/2000/svg">
<metadata>Generated by IcoMoon</metadata>
<defs>
<font id="icomoon" horiz-adv-x="1024">
<font-face units-per-em="1024" ascent="960" descent="-64" />
<missing-glyph horiz-adv-x="1024" />
<glyph unicode="&#x20;" horiz-adv-x="512" d="" />
<glyph unicode="&#xe900;" glyph-name="email" horiz-adv-x="1229" d="M122.88-51.2c-68.18 1.421-122.907 57.027-122.907 125.414 0 0.909 0.010 1.816 0.029 2.721l-0.002-0.135v655.36l581.939-378.88c9.157-6.097 20.41-9.729 32.512-9.729s23.355 3.632 32.73 9.865l-0.218-0.136 581.837 379.392v-655.36c0.024-0.922 0.038-2.008 0.038-3.097 0-68.392-54.733-124-122.786-125.412l-0.132-0.002zM1.434 860.16c6.12 62.641 57.898 111.368 121.32 112.638l0.126 0.002h983.040c63.548-1.272 115.327-49.999 121.406-112.128l0.040-0.512-612.966-399.36z" />
<glyph unicode="&#xe901;" glyph-name="card" horiz-adv-x="1229" d="M122.88-51.2c-68.18 1.421-122.907 57.027-122.907 125.414 0 0.909 0.010 1.816 0.029 2.721l-0.002-0.135v512h1228.8v-512c0.017-0.77 0.027-1.676 0.027-2.586 0-68.388-54.726-123.994-122.774-125.412l-0.132-0.002zM0 780.8v64c-0.016 0.74-0.025 1.611-0.025 2.485 0 68.408 54.714 124.036 122.767 125.512l0.137 0.002h983.040c68.18-1.421 122.907-57.027 122.907-125.414 0-0.909-0.010-1.816-0.029-2.721l0.002 0.135v-64z" />
<glyph unicode="&#xe902;" glyph-name="zipcode" d="M910.251-51.2v113.749h-113.835v-113.749h-113.749v113.749h-113.835v-113.749h-113.749v682.667h568.917v-682.667zM227.584-51.2v113.749h-113.835v-113.749h-113.749v455.168h341.333v-455.168zM170.667 517.717v455.083h568.917v-227.584h-113.835v113.835h-113.749v-113.835h-113.749v113.835h-113.749v-113.835h56.832v-113.749h-56.832v-113.749z" />
<glyph unicode="&#xe903;" glyph-name="twitter" horiz-adv-x="1229" d="M1228.8 972.8c-57.733-34.118-124.487-62.174-195.103-80.695l-5.498-1.225-4.198-1.229c-49.149 51.201-118.126 83.045-194.541 83.149h-0.019c-153.424-3.298-276.535-128.451-276.535-282.358 0-1.966 0.020-3.927 0.060-5.884l-0.005 0.293c0-8.397-0.717-23.757 0-31.949-196.325 5.629-368.39 104.654-473.976 254.015l-1.262 1.882c-11.276-35.482-17.774-76.29-17.774-118.617 0-4.020 0.059-8.025 0.175-12.017l-0.014 0.586c10.985-105.026 77.971-192.123 170.188-231.643l1.844-0.703c-18.729-5.435-40.272-8.672-62.536-8.908l-0.133-0.001c-0.712-0.011-1.553-0.018-2.395-0.018-40.52 0-77.54 14.981-105.826 39.705l0.188-0.161v-3.584c0-124.928 127.693-210.227 241.254-233.984-23.813-10.046-51.498-15.883-80.546-15.883-4.086 0-8.144 0.115-12.173 0.343l0.559-0.025c-33.134 2.186-63.22 5.827-92.787 10.981l5.133-0.741c40.733-96.174 134.327-162.417 243.392-162.417 3.75 0 7.481 0.078 11.193 0.233l-0.531-0.018c-70.917-61.169-163.96-98.424-265.705-98.424-18.239 0-36.199 1.197-53.804 3.517l2.069-0.223h-59.494c109.17-76.259 243.619-123.489 388.833-127.973l1.106-0.027c4.698-0.113 10.232-0.178 15.781-0.178 386.716 0 700.211 313.495 700.211 700.211 0 1.395-0.004 2.789-0.012 4.181l0.001-0.215c0 5.53 0 16.998 0 28.57 0 1.126 0 2.253 0 3.379s0 3.379 0 5.12c0 8.704 0 16.794-0.512 21.094 48.695 37.191 89.677 81.497 122.163 131.805l1.229 2.032c-41.454-19.759-89.561-34.164-140.133-40.706l-2.407-0.254c62.688 41.26 111.666 98.732 141.576 166.508l0.965 2.452z" />
<glyph unicode="&#xe904;" glyph-name="url" d="M664.082 395.633c-11.997-11.997-31.448-11.997-43.445 0s-11.997 31.448 0 43.445l65.167 65.167c35.991 35.991 35.991 94.343 0 130.334s-94.343 35.991-130.334 0l-65.167-65.167c-11.997-11.997-31.448-11.997-43.445 0s-11.997 31.448 0 43.445v0l65.167 65.167c59.985 59.985 157.239 59.985 217.223 0s59.985-157.239 0-217.223v0zM512.025 243.577c-59.985-59.985-157.239-59.985-217.223 0s-59.985 157.239 0 217.223v0l65.167 65.167c11.997 11.997 31.448 11.997 43.445 0s11.997-31.448 0-43.445v0l-65.167-65.167c-35.991-35.991-35.991-94.343 0-130.334s94.343-35.991 130.334 0l65.167 65.167c11.997 11.997 31.448 11.997 43.445 0s11.997-31.448 0-43.445v0zM468.581 373.911c-11.997-11.997-31.448-11.997-43.445 0s-11.997 31.448 0 43.445l130.334 130.334c11.997 11.997 31.448 11.997 43.445 0s11.997-31.448 0-43.445v0z" />
<glyph unicode="&#xe905;" glyph-name="save" d="M93.123-51.2c-0.026 0-0.057 0-0.087 0-51.382 0-93.035 41.653-93.035 93.035 0 0 0 0 0 0v0 837.842c0 0.026 0 0.057 0 0.087 0 51.382 41.653 93.035 93.035 93.035 0.031 0 0.061 0 0.092 0h139.636v-279.281c0 0 0 0 0 0 0-25.691 20.827-46.518 46.518-46.518 0.031 0 0.061 0 0.092 0h418.829c25.691 0 46.518 20.827 46.518 46.518v0 279.281h93.123l186.158-186.158v-744.807c0-51.382-41.653-93.035-93.035-93.035v0zM558.561 740.037v232.763h93.035v-232.763z" />
<glyph unicode="&#xe906;" glyph-name="doscord-setting" d="M431.104-51.2c-0.267-0.005-0.583-0.008-0.899-0.008-25.165 0-46.232 17.549-51.629 41.077l-0.069 0.356-17.873 87.785c-46.128 16.695-86.041 39.123-121.481 66.984l0.928-0.704-88.25-28.951c-5.2-1.806-11.192-2.849-17.429-2.849-19.49 0-36.6 10.186-46.299 25.524l-0.133 0.225-80.803 133.492c-4.452 7.293-7.087 16.116-7.087 25.555 0 15.594 7.194 29.508 18.444 38.604l0.094 0.073 70.47 58.74c-3.836 19.872-6.031 42.727-6.031 66.095s2.195 46.222 6.389 68.369l-0.358-2.275-70.47 58.647c-11.277 9.187-18.421 23.073-18.421 38.628 0 9.495 2.662 18.369 7.281 25.915l-0.124-0.217 80.71 133.865c9.839 15.52 26.926 25.672 46.383 25.672 6.254 0 12.264-1.049 17.862-2.981l-0.385 0.115 88.25-28.951c34.498 27.044 74.376 49.405 117.446 65.132l3.013 0.962 17.78 87.692c5.465 23.885 26.532 41.435 51.698 41.435 0.349 0 0.697-0.003 1.044-0.010l-0.052 0.001h161.792c0.267 0.005 0.583 0.008 0.899 0.008 25.165 0 46.232-17.549 51.629-41.077l0.069-0.356 17.967-87.785c46.051-16.767 85.893-39.186 121.306-66.991l-0.939 0.711 88.25 28.951c5.2 1.806 11.192 2.849 17.429 2.849 19.49 0 36.6-10.186 46.299-25.524l0.133-0.225 80.803-133.772c4.514-7.34 7.188-16.232 7.188-25.748 0-15.527-7.119-29.391-18.27-38.507l-0.089-0.070-70.749-58.647c3.836-19.872 6.031-42.727 6.031-66.095s-2.195-46.222-6.389-68.369l0.358 2.275 70.749-58.74c11.228-9.152 18.341-22.982 18.341-38.474 0-9.486-2.667-18.35-7.293-25.881l0.123 0.215-80.803-133.865c-9.793-15.538-26.86-25.71-46.303-25.71-6.285 0-12.321 1.063-17.94 3.018l0.383-0.116-88.25 29.417c-34.476-27.024-74.32-49.383-117.35-65.129l-3.016-0.965-17.967-87.785c-5.395-23.976-26.506-41.619-51.738-41.619-0.302 0-0.603 0.003-0.903 0.008l0.045-0.001z" />
<glyph unicode="&#xe907;" glyph-name="circle" d="M0 460.8c0.043 115.38 38.517 221.765 103.315 307.060l-0.915-1.256v1.396h1.117c94.263 123.647 241.636 202.634 407.458 202.634 282.204 0 510.976-228.772 510.976-510.976s-228.772-510.976-510.976-510.976c-282.204 0-510.976 228.772-510.976 510.976 0 0.402 0 0.803 0.001 1.205v-0.063z" />
<glyph unicode="&#xe908;" glyph-name="discord" d="M862.805 960c59.989 0 108.373-48.512 111.232-105.6v-918.4l-114.219 96.981-62.72 57.088-68.437 59.648 28.587-94.080h-598.955c-59.819 0-108.373 45.44-108.373 105.643v692.907c0 57.088 48.64 105.685 108.587 105.685h704zM601.771 717.525h-1.28l-8.619-8.533c88.448-25.6 131.243-65.579 131.243-65.579-57.003 28.501-108.373 42.752-159.744 48.512-37.12 5.76-74.24 2.731-105.6 0h-8.533c-20.053 0-62.72-8.533-119.893-31.36-19.925-8.661-31.36-14.336-31.36-14.336s42.752 42.752 136.96 65.579l-5.76 5.76c0 0-71.339 2.731-148.352-54.187 0 0-77.013-134.144-77.013-299.52 0 0 42.667-74.24 159.701-77.056 0 0 17.067 22.741 34.347 42.752-65.707 19.968-91.307 59.904-91.307 59.904s5.717-2.816 14.293-8.533h2.56c1.28 0 1.877-0.64 2.56-1.28v-0.256c0.683-0.683 1.28-1.28 2.56-1.28 14.080-5.803 28.16-11.52 39.68-17.067 19.883-8.619 45.44-17.195 76.8-22.869 39.68-5.76 85.163-8.533 136.96 0 25.6 5.76 51.2 11.392 76.8 22.827 16.64 8.533 37.12 17.067 59.605 31.445 0 0-25.6-39.936-94.080-59.904 14.080-19.883 33.92-42.667 33.92-42.667 117.077 2.56 162.56 76.8 165.12 73.643 0 165.12-77.44 299.52-77.44 299.52-69.76 51.797-135.040 53.76-146.56 53.76zM608.939 529.237c29.995 0 54.187-25.6 54.187-56.96 0-31.573-24.32-57.173-54.187-57.173s-54.187 25.6-54.187 56.917c0.085 31.573 24.448 57.088 54.187 57.216zM415.104 529.237c29.867 0 54.016-25.6 54.016-56.96 0-31.573-24.32-57.173-54.187-57.173s-54.187 25.6-54.187 56.917c0 31.573 24.32 57.088 54.357 57.216z" />
<glyph unicode="&#xe909;" glyph-name="tick" horiz-adv-x="1430" d="M635.586-51.2c-35.31 0-70.621 17.655-88.276 35.31l-441.379 406.069c-70.621 35.31-70.621 123.586-17.655 176.552s141.241 52.966 194.207 17.655l335.448-317.793 529.655 600.276c52.966 52.966 123.586 52.966 194.207 17.655 52.966-52.966 52.966-123.586 17.655-194.207l-617.931-706.207c-35.31-17.655-70.621-35.31-105.931-35.31 0 0 0 0 0 0z" />
<glyph unicode="&#xe90a;" glyph-name="pencil" d="M0 27.051v199.083l572.501 572.416 198.997-199.083-572.331-572.416zM647.083 873.301l58.368 58.283c25.658 26.659 61.646 43.219 101.502 43.219 77.762 0 140.8-63.038 140.8-140.8 0-39.856-16.56-75.844-43.174-101.459l-0.045-0.043-58.283-58.368z" />
<glyph unicode="&#xe90b;" glyph-name="stop" d="M204.8 972.8h614.4c113.108 0 204.8-91.692 204.8-204.8v-614.4c0-113.108-91.692-204.8-204.8-204.8h-614.4c-113.108 0-204.8 91.692-204.8 204.8v614.4c0 113.108 91.692 204.8 204.8 204.8z" />
<glyph unicode="&#xe90c;" glyph-name="play" horiz-adv-x="886" d="M293.636 942.615c-29.038 18.743-64.514 29.883-102.591 29.883-105.506 0-191.036-85.525-191.045-191.028v-641.243c0.009-105.504 85.539-191.029 191.045-191.029 38.077 0 73.553 11.14 103.345 30.338l-0.754-0.455 503.785 320.573c53.545 34.45 88.504 93.739 88.504 161.194s-34.959 126.744-87.748 160.738l-0.756 0.456z" />
<glyph unicode="&#xe90d;" glyph-name="plus" d="M514.816 960c35.346 0 64-28.654 64-64v-896c0-35.346-28.654-64-64-64s-64 28.654-64 64v896c0 35.346 28.654 64 64 64zM1024 445.184c0-35.346-28.654-64-64-64h-896c-35.346 0-64 28.654-64 64s28.654 64 64 64h896c35.346 0 64-28.654 64-64z" />
<glyph unicode="&#xe90e;" glyph-name="right-arrow" horiz-adv-x="1358" d="M845.988 972.8c-21.299-0.146-40.514-8.948-54.325-23.060l-0.013-0.014-7.153-6.23c-13.943-13.911-22.57-33.146-22.57-54.396s8.626-40.485 22.568-54.394l297.649-297.072h-1005.195c-0.889 0.037-1.931 0.058-2.979 0.058-42.498 0-76.95-34.452-76.95-76.95s34.452-76.95 76.95-76.95c1.048 0 2.090 0.021 3.128 0.062l-0.149-0.005h1005.195l-297.648-297.186c-13.943-13.911-22.57-33.146-22.57-54.396s8.626-40.485 22.568-54.394l6.577-6.577c13.911-13.943 33.146-22.57 54.396-22.57s40.485 8.626 54.394 22.568l0.001 0.001 435.627 435.050c13.943 13.911 22.57 33.146 22.57 54.396s-8.626 40.485-22.568 54.394l-435.628 434.59c-13.725 14.009-32.749 22.783-53.822 23.073l-0.054 0.001z" />
<glyph unicode="&#xe90f;" glyph-name="cross" d="M734.618 212.531c-24.013-24.013-62.925-24.013-86.886 0l-135.731 155.136-135.731-155.085c-24.013-24.013-62.925-24.013-86.886 0-24.013 24.013-24.013 62.925 0 86.886l141.21 161.28-141.261 161.382c-24.013 24.013-24.013 62.874 0 86.886s62.874 24.013 86.886 0l135.782-155.187 135.731 155.187c24.013 24.013 62.874 24.013 86.886 0s24.013-62.925 0-86.886l-141.21-161.382 141.21-161.28c24.013-24.013 24.013-62.925 0-86.938z" />
<glyph unicode="&#xe910;" glyph-name="setting" horiz-adv-x="973" d="M450.583-64v0c-0.064 0-0.139 0-0.215 0-28.372 0-54.137 11.158-73.147 29.326l0.040-0.038c-18.927 18.349-30.685 43.998-30.722 72.394v0.007c0.001 0.158 0.001 0.344 0.001 0.531 0 18.713-5.218 36.208-14.277 51.108l0.246-0.436c-19.094 30.655-52.616 50.755-90.832 50.755-18.984 0-36.809-4.96-52.25-13.654l0.535 0.277c-15.155-8.837-33.36-14.055-52.783-14.055-38.159 0-71.615 20.136-90.322 50.363l-0.262 0.455-32.718 58.269c-8.686 14.507-13.823 32.004-13.823 50.701 0 9.435 1.308 18.564 3.752 27.216l-0.17-0.704c7.743 26.579 25.227 48.197 48.233 61.178l0.512 0.265c15.874 8.733 28.7 21.263 37.539 36.406l0.248 0.46 1.741 3.021c7.796 13.963 12.386 30.634 12.386 48.377 0 37.744-20.773 70.636-51.51 87.868l-0.508 0.261-1.638 0.87-0.666 0.41c-29.873 17.827-49.569 49.98-49.569 86.733 0 18.7 5.099 36.209 13.983 51.213l-0.256-0.467 32.718 57.347c14.012 23.788 36.527 41.297 63.271 48.475l0.732 0.167c8.109 2.206 17.419 3.474 27.025 3.474 19.645 0 38.052-5.301 53.868-14.551l-0.506 0.273c15.035-8.65 33.061-13.752 52.278-13.752s37.243 5.102 52.796 14.025l-0.518-0.274c31.162 17.528 51.868 50.384 51.868 88.077 0 0.033 0 0.066 0 0.099v-0.005c1.342 56.22 47.1 101.315 103.454 101.586h69.866c0.087 0 0.191 0 0.295 0 28.65 0 54.637-11.406 73.666-29.926l-0.024 0.023c18.623-18.232 30.202-43.595 30.312-71.663v-0.021c0.283-47.514 32.882-87.336 76.914-98.616l0.71-0.154c8.114-2.21 17.431-3.48 27.044-3.48 19.245 0 37.301 5.090 52.896 13.997l-0.524-0.276c15.035 8.624 33.052 13.709 52.257 13.709 9.581 0 18.866-1.266 27.698-3.639l-0.745 0.17c27.088-7.089 49.337-24.181 63.026-46.997l0.26-0.468 34.306-59.805c8.685-14.497 13.821-31.984 13.821-50.67 0-9.427-1.307-18.549-3.75-27.195l0.17 0.703c-7.603-26.645-25.131-48.311-48.231-61.18l-0.514-0.263c-15.826-9.004-28.64-21.653-37.582-36.854l-0.257-0.473c-8.108-14.137-12.89-31.078-12.89-49.136 0-37.193 20.284-69.648 50.393-86.907l0.489-0.258 1.434-0.819c30.176-17.645 50.126-49.889 50.126-86.793 0-18.331-4.922-35.512-13.517-50.294l0.257 0.478-34.562-58.269c-18.956-30.745-52.447-50.93-90.652-50.93-19.065 0-36.956 5.026-52.42 13.826l0.524-0.274c-14.624 8.315-32.128 13.217-50.776 13.217-0.402 0-0.803-0.002-1.204-0.007l0.061 0.001h-0.512c-0.071 0-0.156 0-0.24 0-28.765 0-54.831-11.553-73.811-30.273l0.012 0.012c-18.62-18.249-30.162-43.66-30.162-71.766 0-0.295 0.001-0.59 0.004-0.884v0.045c-0.977-56.39-46.822-101.751-103.308-101.944h-71.395zM486.424 576.032c-70.696 0-128.006-57.31-128.006-128.006s57.31-128.006 128.006-128.006c70.696 0 128.006 57.31 128.006 128.006v0c0 70.696-57.31 128.006-128.006 128.006v0z" />
<glyph unicode="&#xe911;" glyph-name="dash" d="M720.691 960h173.312c71.864-0.319 129.998-58.65 129.998-130.559 0-0.18 0-0.361-0.001-0.541v0.028-174.899c0.001-0.152 0.001-0.333 0.001-0.513 0-71.88-58.111-130.188-129.916-130.507h-173.393c-71.852 0.261-129.998 58.569-129.998 130.457 0 0.18 0 0.36 0.001 0.541v-0.028 174.899c-0.001 0.168-0.001 0.366-0.001 0.565 0 71.891 58.105 130.21 129.914 130.558h0.033zM894.054-64h-173.414c-71.83 0.29-129.947 58.586-129.947 130.457 0 0.216 0.001 0.432 0.002 0.649v-0.033 174.797c-0.001 0.198-0.002 0.432-0.002 0.667 0 71.842 58.094 130.115 129.868 130.405h173.494c71.83-0.29 129.947-58.586 129.947-130.457 0-0.198 0-0.397-0.001-0.595v0.031-174.848c0.001-0.183 0.001-0.399 0.001-0.615 0-71.87-58.117-130.166-129.919-130.457h-0.028zM303.36-64h-173.363c-71.864 0.319-129.998 58.65-129.998 130.559 0 0.18 0 0.361 0.001 0.541v-0.028 174.797c0 0.122-0.001 0.267-0.001 0.411 0 71.929 58.121 130.283 129.961 130.661h173.399c71.83-0.29 129.947-58.586 129.947-130.457 0-0.198 0-0.397-0.001-0.595v0.031-174.848c0.001-0.183 0.001-0.399 0.001-0.615 0-71.87-58.117-130.166-129.919-130.457h-0.028zM303.36 523.008h-173.363c-71.852 0.261-129.998 58.569-129.998 130.457 0 0.198 0 0.396 0.001 0.595v-0.031 174.899c0 0.107 0 0.234 0 0.361 0 71.921 58.086 130.276 129.905 130.711h173.455c71.854-0.407 129.946-58.75 129.946-130.66 0-0.109 0-0.217 0-0.326v0.017-174.899c0.001-0.183 0.001-0.399 0.001-0.616 0-71.852-58.088-130.137-129.865-130.456h-0.030z" />
<glyph unicode="&#xe912;" glyph-name="global" d="M1.088 426.624c11.328-272.352 235.808-490.624 510.912-490.624s499.584 218.272 510.912 490.624c0.608 1.696 1.088 3.456 1.088 5.376 0 1.152-0.416 2.144-0.64 3.2 0.096 4.288 0.64 8.48 0.64 12.8 0 282.304-229.696 512-512 512s-512-229.696-512-512c0-4.32 0.544-8.512 0.64-12.8-0.224-1.056-0.64-2.048-0.64-3.2 0-1.92 0.48-3.68 1.088-5.376zM797.472 232.256c-42.208 17.664-87.52 31.328-134.88 40.672 5.056 46.496 8.032 94.784 8.96 143.040h159.36c-2.912-65.728-14.592-127.776-33.44-183.712zM862.88 416h127.488c-5.952-89.792-36.416-172.896-85.216-242.528-24.288 17.056-50.464 32.608-78.624 46.080 20.64 59.808 33.344 126.176 36.352 196.448zM396.448 246.848c37.696 5.888 76.384 9.152 115.552 9.152s77.856-3.264 115.52-9.152c-22.208-170.72-70.72-278.848-115.52-278.848s-93.312 108.128-115.552 278.848zM445.056-21.248c-88.032 28.224-162.496 111.072-207.424 223.488 39.872 16.8 82.752 29.92 127.68 38.944 14.688-111.872 41.536-209.344 79.744-262.432zM392.768 617.312c38.944-6.016 78.88-9.312 119.232-9.312s80.288 3.296 119.232 9.312c5.504-51.84 8.768-108.416 8.768-169.312h-256c0 60.896 3.264 117.472 8.768 169.312zM639.52 416c-0.896-48.8-3.776-94.752-8.32-137.312-38.912 6.016-78.816 9.312-119.2 9.312s-80.288-3.296-119.232-9.312c-5.536 52.032-7.584 97.824-8.32 137.312h255.072zM658.72 241.184c44.928-9.024 87.776-22.144 127.68-38.944-44.928-112.416-119.392-195.264-207.424-223.488 38.176 53.088 65.024 150.56 79.744 262.432zM672 448c0 58.752-3.264 118.272-9.408 175.040 47.36 9.344 92.672 23.040 134.88 40.672 21.888-64.928 34.528-138.080 34.528-215.712h-160zM658.72 654.816c-14.72 111.872-41.536 209.376-79.776 262.432 88.032-28.224 162.496-111.072 207.424-223.488-39.872-16.8-82.72-29.952-127.648-38.944zM627.552 649.152c-37.696-5.888-76.384-9.152-115.552-9.152s-77.856 3.264-115.552 9.152c22.24 170.72 70.752 278.848 115.552 278.848s93.312-108.128 115.552-278.848zM365.28 654.816c-44.928 9.024-87.776 22.144-127.68 38.944 44.928 112.416 119.392 195.264 207.424 223.488-38.176-53.088-65.024-150.56-79.744-262.432zM361.408 623.040c-6.144-56.768-9.408-116.288-9.408-175.040h-160c0 77.632 12.64 150.784 34.528 215.744 42.208-17.664 87.52-31.328 134.88-40.704zM352.448 416c0.928-48.256 3.904-96.544 8.96-143.072-47.36-9.344-92.672-23.040-134.88-40.672-18.848 55.936-30.528 117.984-33.44 183.744h159.36zM197.44 219.552c-28.16-13.504-54.304-29.024-78.592-46.080-48.8 69.632-79.264 152.704-85.216 242.528h127.488c3.008-70.272 15.712-136.64 36.32-196.448zM138.016 147.84c21.92 15.328 45.344 29.504 70.624 41.76 32.128-79.52 78.368-145.536 133.952-190.176-80.832 30.656-151.328 82.176-204.576 148.416zM681.408-0.544c55.616 44.608 101.824 110.656 133.952 190.176 25.28-12.288 48.704-26.432 70.624-41.76-53.248-66.272-123.744-117.792-204.576-148.416zM864 448c0 82.144-13.696 159.584-37.44 228.448 28.16 13.504 54.336 29.024 78.624 46.080 54.528-77.888 86.816-172.448 86.816-274.528h-128zM886.016 748.16c-21.92-15.328-45.344-29.472-70.624-41.76-32.128 79.52-78.368 145.568-133.952 190.176 80.8-30.656 151.296-82.176 204.576-148.416zM342.592 896.544c-55.616-44.608-101.824-110.656-133.952-190.176-25.312 12.288-48.704 26.464-70.624 41.792 53.248 66.24 123.744 117.76 204.576 148.384zM118.848 722.528c24.256-17.056 50.432-32.576 78.592-46.080-23.744-68.864-37.44-146.304-37.44-228.448h-128c0 102.080 32.288 196.64 86.848 274.528z" />
<glyph unicode="&#xe913;" glyph-name="lock" horiz-adv-x="780" d="M390.095 960c-162.075 0-292.571-130.496-292.571-292.571v-48.762c-53.638 0-97.524-43.886-97.524-97.524v-487.619c0-53.638 43.886-97.524 97.524-97.524h585.143c53.638 0 97.524 43.886 97.524 97.524v487.619c0 53.638-43.886 97.524-97.524 97.524v48.762c0 162.075-130.496 292.571-292.571 292.571zM390.095 862.476c110.991 0 195.048-84.056 195.048-195.048v-48.762h-390.095v48.762c0 110.991 84.056 195.048 195.048 195.048zM390.095 374.857c53.638 0 97.524-43.886 97.524-97.524s-43.886-97.524-97.524-97.524c-53.638 0-97.524 43.886-97.524 97.524s43.886 97.524 97.524 97.524z" />
<glyph unicode="&#xe914;" glyph-name="world" d="M512 853.334c-212.096 0-384-171.904-384-384s171.904-384 384-384 384 171.904 384 384-171.904 384-384 384zM597.333 768c0-42.667-21.333-85.333-64-85.333s-64-42.667-64-85.333 0-128 0-128 42.667 0 42.667 128c0 23.595 19.072 42.667 42.667 42.667s42.667-19.072 42.667-42.667v-128c-23.552 0-42.667-19.115-42.667-42.667s19.115-42.667 42.667-42.667c23.595 0 42.667 19.115 42.667 42.667h42.667v85.333l42.667-42.667-42.667-42.667c0-128 0-128-85.333-170.667 0 42.667-42.667 42.667-128 42.667v85.333l-85.333 85.333v85.333c-42.667 0-42.667-42.667-42.667-42.667l-125.909 125.909c4.693 8.192 9.6 16.299 14.933 24.064l22.315 28.928c62.635 73.216 155.477 119.765 259.328 119.765 29.483 0 57.984-4.181 85.333-11.179v-31.488z" />
<glyph unicode="&#xe915;" glyph-name="user" d="M512 960c-282.312 0-512-229.688-512-512s229.688-512 512-512 512 229.688 512 512-229.688 512-512 512zM512 810.666c135.27 0 245.334-110.062 245.334-245.334s-110.064-245.332-245.334-245.332-245.334 110.062-245.334 245.334 110.064 245.332 245.334 245.332zM512 21.334c-139.414 0-263.040 67.51-340.946 171.23 85.352 41.068 207.242 84.77 340.946 84.77 133.714 0 255.614-43.708 340.948-84.766-77.906-103.722-201.532-171.234-340.948-171.234z" />
</font>
</defs>
</svg>
