<svg id="Layer_1" xmlns="http://www.w3.org/2000/svg" viewBox="0 0 23.5 23.5"><style>.st0{opacity:.56}</style><g id="Icon_feather-search" transform="translate(-3 -3)" class="st0"><path d="M13.3 23.6C7.6 23.6 3 19 3 13.3S7.6 3 13.3 3C19 3 23.6 7.6 23.6 13.3S19 23.6 13.3 23.6zm0-17.6C9.3 6 6 9.3 6 13.3s3.3 7.3 7.3 7.3 7.3-3.3 7.3-7.3S17.3 6 13.3 6z" id="Path_119"/><path d="M24.3 25.8c-.4 0-.8-.1-1.1-.4l-4.8-4.8c-.6-.6-.6-1.5 0-2.1s1.5-.6 2.1 0l4.8 4.8c.6.6.6 1.5 0 2.1-.2.3-.6.4-1 .4z" id="Path_120"/></g></svg>