<svg xmlns="http://www.w3.org/2000/svg" width="20.082" height="22.951" viewBox="0 0 20.082 22.951">
  <path id="Icon_awesome-calendar-alt" data-name="Icon awesome-calendar-alt" d="M0,20.8a2.152,2.152,0,0,0,2.152,2.152H17.93A2.152,2.152,0,0,0,20.082,20.8V8.607H0Zm14.344-8.786a.539.539,0,0,1,.538-.538h1.793a.539.539,0,0,1,.538.538v1.793a.539.539,0,0,1-.538.538H14.882a.539.539,0,0,1-.538-.538Zm0,5.738a.539.539,0,0,1,.538-.538h1.793a.539.539,0,0,1,.538.538v1.793a.539.539,0,0,1-.538.538H14.882a.539.539,0,0,1-.538-.538ZM8.607,12.013a.539.539,0,0,1,.538-.538h1.793a.539.539,0,0,1,.538.538v1.793a.539.539,0,0,1-.538.538H9.144a.539.539,0,0,1-.538-.538Zm0,5.738a.539.539,0,0,1,.538-.538h1.793a.539.539,0,0,1,.538.538v1.793a.539.539,0,0,1-.538.538H9.144a.539.539,0,0,1-.538-.538ZM2.869,12.013a.539.539,0,0,1,.538-.538H5.2a.539.539,0,0,1,.538.538v1.793a.539.539,0,0,1-.538.538H3.407a.539.539,0,0,1-.538-.538Zm0,5.738a.539.539,0,0,1,.538-.538H5.2a.539.539,0,0,1,.538.538v1.793a.539.539,0,0,1-.538.538H3.407a.539.539,0,0,1-.538-.538ZM17.93,2.869H15.779V.717A.719.719,0,0,0,15.062,0H13.627a.719.719,0,0,0-.717.717V2.869H7.172V.717A.719.719,0,0,0,6.455,0H5.021A.719.719,0,0,0,4.3.717V2.869H2.152A2.152,2.152,0,0,0,0,5.021V7.172H20.082V5.021A2.152,2.152,0,0,0,17.93,2.869Z" opacity="0.7"/>
</svg>
