<svg xmlns="http://www.w3.org/2000/svg" width="33.75" height="15.469" viewBox="0 0 33.75 15.469">
  <path id="Icon_ionic-ios-recording" data-name="Icon ionic-ios-recording" d="M27.155,10.266h-.007A7.741,7.741,0,0,0,21.7,23.484h-7.39A7.741,7.741,0,0,0,8.859,10.266H8.845a7.734,7.734,0,0,0,0,15.469H27.155a7.734,7.734,0,0,0,0-15.469ZM32.625,18a5.477,5.477,0,1,1-5.477-5.5A5.493,5.493,0,0,1,32.625,18ZM8.852,23.5A5.5,5.5,0,1,1,14.33,18,5.5,5.5,0,0,1,8.852,23.5Z" transform="translate(-1.125 -10.266)"/>
</svg>
