<svg id="business_1_" data-name="business (1)" xmlns="http://www.w3.org/2000/svg" width="31" height="31" viewBox="0 0 31 31">
  <path id="Path_95" data-name="Path 95" d="M183.374,8.477l.214.6H189.1l-.221-1.089A9.947,9.947,0,0,0,181.089.221L180,0V5.494a4.9,4.9,0,0,1,3.374,2.983Z" transform="translate(-169.102 0)" fill="#2e303b"/>
  <path id="Path_96" data-name="Path 96" d="M59.46,186.766a9.987,9.987,0,0,0,16.181-5.677L75.862,180H70.346c-.073.1-.822,3.633-4.5,3.633a4.511,4.511,0,0,1-2.5-.754Z" transform="translate(-55.86 -169.102)" fill="#2e303b"/>
  <path id="Path_97" data-name="Path 97" d="M6.2,12.493a4.516,4.516,0,0,1-.753-2.5c0-3.589,3.611-4.481,3.633-4.5V0L7.993.221A9.969,9.969,0,0,0,2.316,16.38Z" fill="#2e303b"/>
  <path id="Path_98" data-name="Path 98" d="M391,242h5.449v12.715H391Z" transform="translate(-367.326 -227.348)" fill="#2e303b"/>
  <path id="Path_99" data-name="Path 99" d="M271,392h5.449v3.633H271Z" transform="translate(-254.592 -368.266)" fill="#2e303b"/>
  <path id="Path_100" data-name="Path 100" d="M151,362h5.449v5.449H151Z" transform="translate(-141.857 -340.082)" fill="#2e303b"/>
  <path id="Path_101" data-name="Path 101" d="M31,422h5.449v1.816H31Z" transform="translate(-29.123 -396.449)" fill="#2e303b"/>
  <path id="Path_102" data-name="Path 102" d="M0,482H31v1.816H0Z" transform="translate(0 -452.816)" fill="#2e303b"/>
</svg>
