<?xml version="1.0" encoding="utf-8"?>
<!-- Generator: Adobe Illustrator 22.1.0, SVG Export Plug-In . SVG Version: 6.00 Build 0)  -->
<svg version="1.1" id="Layer_1" xmlns="http://www.w3.org/2000/svg" xmlns:xlink="http://www.w3.org/1999/xlink" x="0px" y="0px"
	 viewBox="0 0 23.5 23.5" style="enable-background:new 0 0 23.5 23.5;" xml:space="preserve">
<style type="text/css">
	.st0{opacity:0.56;}
</style>
<g id="Icon_feather-search" transform="translate(-3 -3)" class="st0">
	<g id="Path_119">
		<path d="M13.3,23.6C7.6,23.6,3,19,3,13.3S7.6,3,13.3,3C19,3,23.6,7.6,23.6,13.3S19,23.6,13.3,23.6z M13.3,6C9.3,6,6,9.3,6,13.3
			c0,4,3.3,7.3,7.3,7.3s7.3-3.3,7.3-7.3C20.6,9.3,17.3,6,13.3,6z"/>
	</g>
	<g id="Path_120">
		<path d="M24.3,25.8c-0.4,0-0.8-0.1-1.1-0.4l-4.8-4.8c-0.6-0.6-0.6-1.5,0-2.1s1.5-0.6,2.1,0l4.8,4.8c0.6,0.6,0.6,1.5,0,2.1
			C25.1,25.7,24.7,25.8,24.3,25.8z"/>
	</g>
</g>
</svg>
