<?xml version="1.0" encoding="utf-8"?>
<!-- Generator: Adobe Illustrator 22.1.0, SVG Export Plug-In . SVG Version: 6.00 Build 0)  -->
<svg version="1.1" id="Layer_1" xmlns="http://www.w3.org/2000/svg" xmlns:xlink="http://www.w3.org/1999/xlink" x="0px" y="0px"
	 viewBox="0 0 25.7 25.7" style="enable-background:new 0 0 25.7 25.7;" xml:space="preserve">
<g id="Icon_feather-upload" transform="translate(1.35 1.35)">
	<g id="Path_103">
		<path d="M20.4,24.3H2.6c-2.2,0-3.9-1.8-3.9-3.9v-5.1c0-0.7,0.6-1.3,1.4-1.3s1.4,0.6,1.4,1.3v5.1c0,0.7,0.5,1.2,1.2,1.2h17.9
			c0.7,0,1.2-0.5,1.2-1.2v-5.1c0-0.7,0.6-1.3,1.3-1.3s1.3,0.6,1.3,1.3v5.1C24.3,22.6,22.6,24.3,20.4,24.3z"/>
	</g>
	<g id="Path_104">
		<path d="M17.9,7.7c-0.3,0-0.7-0.1-1-0.4l-5.4-5.4L6.1,7.3c-0.5,0.5-1.4,0.5-1.9,0S3.6,6,4.2,5.4L10.5-1c0.5-0.5,1.4-0.5,1.9,0
			l6.4,6.4c0.5,0.5,0.5,1.4,0,1.9C18.6,7.6,18.2,7.7,17.9,7.7z"/>
	</g>
	<g id="Path_105">
		<path d="M11.5,16.7c-0.7,0-1.4-0.6-1.4-1.3V0c0-0.7,0.6-1.4,1.4-1.4s1.4,0.6,1.4,1.4v15.3C12.8,16.1,12.2,16.7,11.5,16.7z"/>
	</g>
</g>
</svg>
