<svg xmlns="http://www.w3.org/2000/svg" width="17.157" height="17.157" viewBox="0 0 17.157 17.157">
  <path id="next" d="M12.336.5a1.345,1.345,0,0,0-1.344,1.342v3.08A10.991,10.991,0,0,0,0,15.913v1.072a.67.67,0,0,0,1.34,0V15.913a9.662,9.662,0,0,1,9.651-9.651,1.342,1.342,0,0,0,1.341-1.34V1.841h0l3.283,3.276a.671.671,0,0,1,0,.95L12.337,9.343h0V8.608a.67.67,0,0,0-1.34,0v.735a1.343,1.343,0,0,0,2.292.949l3.283-3.276a2.012,2.012,0,0,0,0-2.848L13.283.892A1.34,1.34,0,0,0,12.336.5Zm0,0" transform="translate(0 -0.499)" fill="#959697"/>
</svg>
