<svg xmlns="http://www.w3.org/2000/svg" width="21.685" height="14.457" viewBox="0 0 21.685 14.457">
  <path id="Icon_awesome-eye" data-name="Icon awesome-eye" d="M21.554,11.179A12.075,12.075,0,0,0,10.843,4.5,12.077,12.077,0,0,0,.131,11.179a1.218,1.218,0,0,0,0,1.1,12.075,12.075,0,0,0,10.712,6.679,12.077,12.077,0,0,0,10.712-6.679A1.218,1.218,0,0,0,21.554,11.179ZM10.843,17.15a5.421,5.421,0,1,1,5.421-5.421A5.421,5.421,0,0,1,10.843,17.15Zm0-9.035a3.588,3.588,0,0,0-.953.143,1.8,1.8,0,0,1-2.519,2.519,3.606,3.606,0,1,0,3.471-2.661Z" transform="translate(0 -4.5)" fill="#fff"/>
</svg>
