<svg xmlns="http://www.w3.org/2000/svg" width="17.157" height="17.157" viewBox="0 0 17.157 17.157">
  <path id="next" d="M4.821.5A1.345,1.345,0,0,1,6.165,1.841v3.08A10.991,10.991,0,0,1,17.157,15.913v1.072a.67.67,0,0,1-1.34,0V15.913A9.662,9.662,0,0,0,6.165,6.262a1.342,1.342,0,0,1-1.341-1.34V1.841h0L1.537,5.117a.671.671,0,0,0,0,.95L4.82,9.343h0V8.608a.67.67,0,0,1,1.34,0v.735a1.343,1.343,0,0,1-2.292.949L.59,7.016a2.012,2.012,0,0,1,0-2.848L3.873.892A1.34,1.34,0,0,1,4.821.5Zm0,0" transform="translate(0 -0.499)" fill="#959697"/>
</svg>
