<?xml version="1.0" encoding="utf-8"?>
<!-- Generator: Adobe Illustrator 22.1.0, SVG Export Plug-In . SVG Version: 6.00 Build 0)  -->
<svg version="1.1" id="Layer_1" xmlns="http://www.w3.org/2000/svg" xmlns:xlink="http://www.w3.org/1999/xlink" x="0px" y="0px"
	 viewBox="0 0 31 29.1" style="enable-background:new 0 0 31 29.1;" xml:space="preserve">
<style type="text/css">
	.st0{opacity:0.7;}
</style>
<g id="Icon_feather-volume-1" transform="translate(1.5 1.5)">
	<g id="Icon_feather-volume-1-2" class="st0">
		<g id="Path_5">
			<path d="M16.8,27.6c-0.3,0-0.7-0.1-0.9-0.3l-8.9-7.1H0c-0.8,0-1.5-0.7-1.5-1.5V7.5C-1.5,6.6-0.8,6,0,6h6.9l8.9-7.1
				c0.5-0.4,1.1-0.4,1.6-0.2C18-1.1,18.3-0.6,18.3,0v26.1c0,0.6-0.3,1.1-0.9,1.4C17.2,27.6,17,27.6,16.8,27.6z M1.5,17.2h6
				c0.3,0,0.7,0.1,0.9,0.3l6.9,5.5V3.1L8.4,8.6C8.1,8.9,7.8,9,7.5,9h-6V17.2z"/>
		</g>
		<g id="Path_6">
			<path d="M25.3,21.2c-0.4,0-0.8-0.1-1.1-0.4c-0.6-0.6-0.6-1.5,0-2.1c3.1-3.1,3.1-8,0-11.1c-0.6-0.6-0.6-1.5,0-2.1
				c0.6-0.6,1.5-0.6,2.1,0c4.2,4.2,4.2,11.1,0,15.3C26,21,25.7,21.2,25.3,21.2z"/>
		</g>
	</g>
</g>
</svg>
