<svg xmlns="http://www.w3.org/2000/svg" width="20.136" height="20.136" viewBox="0 0 20.136 20.136">
  <path id="Icon_material-content-cut" data-name="Icon material-content-cut" d="M10.692,8.678a3.923,3.923,0,0,0,.362-1.651,4.027,4.027,0,1,0-4.027,4.027,3.923,3.923,0,0,0,1.651-.362l2.376,2.376L8.678,15.444a3.923,3.923,0,0,0-1.651-.362,4.027,4.027,0,1,0,4.027,4.027,3.923,3.923,0,0,0-.362-1.651l2.376-2.376,7.048,7.048h3.02V21.122Zm-3.665.362A2.014,2.014,0,1,1,9.041,7.027,2.013,2.013,0,0,1,7.027,9.041Zm0,12.082a2.014,2.014,0,1,1,2.014-2.014A2.013,2.013,0,0,1,7.027,21.122Zm6.041-7.551a.5.5,0,1,1,.5-.5A.5.5,0,0,1,13.068,13.571Zm7.048-9.565-6.041,6.041,2.014,2.014,7.048-7.048V4.007Z" transform="translate(-3 -3)" fill="#fff"/>
</svg>
