<svg xmlns="http://www.w3.org/2000/svg" width="26.06" height="26.419" viewBox="0 0 26.06 26.419">
  <path id="Path_106" data-name="Path 106" d="M80.965,111.689a13.548,13.548,0,0,0-12.95,9.289h1.919a11.068,11.068,0,0,1,.714-1.536h3.693a15.564,15.564,0,0,0-.4,1.536h1.871a14.437,14.437,0,0,1,.472-1.536h3.564v1.536h1.806v-1.536H85.5a13.47,13.47,0,0,1,.528,1.536H87.9a15.107,15.107,0,0,0-.452-1.536h3.834A11.064,11.064,0,0,1,92,120.978h1.915A13.543,13.543,0,0,0,80.965,111.689Zm2.725,2.125a11.766,11.766,0,0,1,6.334,3.822h-3.35a12.67,12.67,0,0,0-2.983-3.822Zm-5.979.133a11.994,11.994,0,0,0-2.661,3.689H71.906A11.751,11.751,0,0,1,77.712,113.946Zm3.939.581a10.41,10.41,0,0,1,2.915,3.108H81.651Zm-1.806.012v3.1H77.123A9.562,9.562,0,0,1,79.845,114.539Zm-11.289,8.184a.772.772,0,0,0-.452.125.371.371,0,0,0-.181.31,1.192,1.192,0,0,0,.085.379l.96,2.758c.029.082.063.175.1.274a.943.943,0,0,0,.153.262.63.63,0,0,0,.254.177,1.069,1.069,0,0,0,.4.064.922.922,0,0,0,.48-.109.658.658,0,0,0,.254-.238,4.33,4.33,0,0,0,.177-.407l.859-2.419.855,2.431c.071.18.128.313.173.4a.639.639,0,0,0,.25.238.948.948,0,0,0,.484.1.934.934,0,0,0,.5-.109.65.65,0,0,0,.246-.25,3.993,3.993,0,0,0,.165-.419l.96-2.758a1.325,1.325,0,0,0,.089-.379.368.368,0,0,0-.185-.31.777.777,0,0,0-.448-.125.71.71,0,0,0-.407.1.552.552,0,0,0-.194.214,2.256,2.256,0,0,0-.109.3l-.677,2.346-.758-2.2a4.111,4.111,0,0,0-.173-.4.692.692,0,0,0-.254-.246.965.965,0,0,0-.512-.113,1.016,1.016,0,0,0-.512.109.7.7,0,0,0-.27.254,2.926,2.926,0,0,0-.173.4l-.754,2.2-.681-2.363a1.341,1.341,0,0,0-.206-.431.6.6,0,0,0-.5-.165Zm9.285,0a.772.772,0,0,0-.452.125.371.371,0,0,0-.181.31,1.222,1.222,0,0,0,.089.379l.96,2.758c.029.082.063.175.1.274a.933.933,0,0,0,.149.262.63.63,0,0,0,.254.177,1.069,1.069,0,0,0,.4.064.938.938,0,0,0,.484-.109.644.644,0,0,0,.25-.238,4.33,4.33,0,0,0,.177-.407l.859-2.419.855,2.431c.071.18.128.313.173.4a.639.639,0,0,0,.25.238.948.948,0,0,0,.484.1.934.934,0,0,0,.5-.109.65.65,0,0,0,.246-.25,3.993,3.993,0,0,0,.165-.419l.96-2.758a1.325,1.325,0,0,0,.089-.379.368.368,0,0,0-.185-.31.777.777,0,0,0-.448-.125.71.71,0,0,0-.407.1.552.552,0,0,0-.194.214,2.255,2.255,0,0,0-.109.3l-.677,2.346-.758-2.2a4.111,4.111,0,0,0-.173-.4.677.677,0,0,0-.25-.246.965.965,0,0,0-.512-.113,1.033,1.033,0,0,0-.516.109.7.7,0,0,0-.27.254,2.925,2.925,0,0,0-.173.4l-.754,2.2-.681-2.363a1.34,1.34,0,0,0-.2-.431.606.606,0,0,0-.5-.165Zm9.285,0a.772.772,0,0,0-.452.125.371.371,0,0,0-.181.31,1.222,1.222,0,0,0,.089.379l.96,2.758c.029.082.063.175.1.274a.933.933,0,0,0,.149.262.63.63,0,0,0,.254.177,1.069,1.069,0,0,0,.4.064.938.938,0,0,0,.484-.109.644.644,0,0,0,.25-.238,4.133,4.133,0,0,0,.181-.407l.855-2.419.855,2.431c.071.18.128.313.173.4a.639.639,0,0,0,.25.238.948.948,0,0,0,.484.1.934.934,0,0,0,.5-.109.65.65,0,0,0,.246-.25,4,4,0,0,0,.165-.419l.96-2.758a1.325,1.325,0,0,0,.089-.379.364.364,0,0,0-.181-.31.79.79,0,0,0-.452-.125.71.71,0,0,0-.407.1.552.552,0,0,0-.194.214,2.255,2.255,0,0,0-.109.3l-.673,2.346-.762-2.2a4.111,4.111,0,0,0-.173-.4.677.677,0,0,0-.25-.246.965.965,0,0,0-.512-.113,1.033,1.033,0,0,0-.516.109.7.7,0,0,0-.27.254,2.925,2.925,0,0,0-.173.4l-.754,2.2-.677-2.363a1.341,1.341,0,0,0-.206-.431.606.606,0,0,0-.5-.165Zm-19.178,5.858a13.658,13.658,0,0,0,26.036,0H92.077a11.125,11.125,0,0,1-.653,1.5h-3.87a15.366,15.366,0,0,0,.415-1.5H86.126a12.626,12.626,0,0,1-.472,1.5h-4v-1.5H79.845v1.5H76.188a15.283,15.283,0,0,1-.427-1.5H73.906c.1.509.231,1.012.375,1.5H70.507a11.146,11.146,0,0,1-.657-1.5Zm3.745,3.31H74.93a11.469,11.469,0,0,0,2.665,3.931A11.725,11.725,0,0,1,71.693,131.891Zm5.249,0h2.9v3.374A8.6,8.6,0,0,1,76.942,131.891Zm4.709,0h3.1a9.892,9.892,0,0,1-3.1,3.29Zm5.181,0h3.407a11.747,11.747,0,0,1-6.636,4.116,12.159,12.159,0,0,0,3.229-4.116Z" transform="translate(-67.923 -111.689)"/>
</svg>
