<svg xmlns="http://www.w3.org/2000/svg" width="19.001" height="19.999" viewBox="0 0 19.001 19.999"><defs><clipPath id="a"><path data-name="Clip 2" d="M0 0h19v20H0z" fill="none"/></clipPath></defs><g data-name="Group 6"><g data-name="Group 3"><path data-name="Clip 2" d="M0 0h19v20H0z" fill="none"/><g data-name="Group 3" clip-path="url(#a)"><path data-name="Combined Shape" d="M8.8 19.999a2.068 2.068 0 01-1.432-.572 1.972 1.972 0 01-.6-1.414 1.924 1.924 0 00-.274-1 2.083 2.083 0 00-2.784-.73 2.073 2.073 0 01-2.8-.718l-.639-1.138a1.951 1.951 0 01-.2-1.508 2 2 0 01.952-1.2 1.894 1.894 0 00.738-.72l.034-.059a1.966 1.966 0 00-.774-2.666l-.032-.017-.013-.008a1.966 1.966 0 01-.7-2.685l.639-1.12a2.044 2.044 0 011.25-.95 2.087 2.087 0 011.57.211 2.075 2.075 0 002.042 0A1.967 1.967 0 006.79 1.983 2.031 2.031 0 018.811-.001h1.364a2.063 2.063 0 011.444.584 1.969 1.969 0 01.592 1.4 2 2 0 001.516 1.929 2.086 2.086 0 001.551-.2 2.079 2.079 0 011.547-.2 2.017 2.017 0 011.236.927l.67 1.168a1.949 1.949 0 01.2 1.507 1.974 1.974 0 01-.952 1.2 1.969 1.969 0 00-.739.729 1.955 1.955 0 00.742 2.662l.014.008.014.008a1.957 1.957 0 01.72 2.668l-.675 1.138a2.073 2.073 0 01-2.784.73 2.034 2.034 0 00-1.014-.258h-.01a2.053 2.053 0 00-1.446.591 1.962 1.962 0 00-.589 1.418 2.025 2.025 0 01-2.018 1.991H8.8zm.7-12.5a2.5 2.5 0 102.5 2.5 2.5 2.5 0 00-2.5-2.5z" fill="#fff"/></g></g></g></svg>