<svg xmlns="http://www.w3.org/2000/svg" width="45" height="45" viewBox="0 0 45 45"><g transform="translate(-1014.654 -330.748)"><path d="M23.188,35.375A12.188,12.188,0,1,1,35.375,23.188,12.2,12.2,0,0,1,23.188,35.375Zm0-22.5A10.313,10.313,0,1,0,33.5,23.188,10.325,10.325,0,0,0,23.188,12.875Z" transform="translate(1024.279 340.373)" fill="#fff"/><path d="M18.688,24.375a.948.948,0,0,1-.664-.274l-3.75-3.75A.937.937,0,1,1,15.6,19.026l3.041,3.041,5.9-6.746a.937.937,0,0,1,1.412,1.234l-6.563,7.5a.944.944,0,0,1-.675.321h-.03Z" transform="translate(1026.903 343.873)" fill="#fff"/><path d="M17.813,36.75H4.688A4.693,4.693,0,0,1,0,32.063V7.688A4.693,4.693,0,0,1,4.688,3h3.75a.938.938,0,1,1,0,1.875H4.688A2.816,2.816,0,0,0,1.875,7.688V32.063a2.816,2.816,0,0,0,2.813,2.813H17.813a.937.937,0,1,1,0,1.875Z" transform="translate(1014.654 333.373)" fill="#fff"/><path d="M20.438,14.25a.938.938,0,0,1-.938-.937V7.688a2.816,2.816,0,0,0-2.812-2.813h-3.75a.938.938,0,1,1,0-1.875h3.75a4.693,4.693,0,0,1,4.688,4.688v5.625A.938.938,0,0,1,20.438,14.25Z" transform="translate(1025.155 333.373)" fill="#fff"/><path d="M18.063,11.25H6.813A2.816,2.816,0,0,1,4,8.438V4.688a.938.938,0,0,1,.938-.938H7.844a4.689,4.689,0,0,1,9.188,0h2.906a.938.938,0,0,1,.938.938v3.75A2.816,2.816,0,0,1,18.063,11.25ZM5.875,5.625V8.438a.939.939,0,0,0,.938.938h11.25A.939.939,0,0,0,19,8.438V5.625H16.188a.938.938,0,0,1-.937-.938,2.813,2.813,0,0,0-5.625,0,.938.938,0,0,1-.937.938Z" transform="translate(1018.154 330.748)" fill="#fff"/><path d="M22.688,9.875H3.938A.938.938,0,0,1,3.938,8h18.75a.938.938,0,1,1,0,1.875Z" transform="translate(1017.28 337.748)" fill="#fff"/><path d="M17.063,12.875H3.938a.938.938,0,0,1,0-1.875H17.063a.938.938,0,0,1,0,1.875Z" transform="translate(1017.28 340.373)" fill="#fff"/><path d="M13.313,15.875H3.938a.938.938,0,1,1,0-1.875h9.375a.938.938,0,0,1,0,1.875Z" transform="translate(1017.28 342.998)" fill="#fff"/></g></svg>