<svg xmlns="http://www.w3.org/2000/svg" width="18.851" height="18.373" viewBox="0 0 18.851 18.373">
  <path id="Icon_awesome-arrow-left" data-name="Icon awesome-arrow-left" d="M10.832,19.79l-.934.934a1.006,1.006,0,0,1-1.426,0L.293,12.549a1.006,1.006,0,0,1,0-1.426L8.472,2.944a1.006,1.006,0,0,1,1.426,0l.934.934a1.011,1.011,0,0,1-.017,1.443l-5.07,4.83H17.837a1.007,1.007,0,0,1,1.01,1.01v1.346a1.007,1.007,0,0,1-1.01,1.01H5.746l5.07,4.83A1,1,0,0,1,10.832,19.79Z" transform="translate(0.004 -2.647)" fill="#fff"/>
</svg>
