<svg xmlns="http://www.w3.org/2000/svg" width="13.487" height="24" viewBox="0 0 13.487 24">
  <g id="Group_72" data-name="Group 72" transform="translate(4491.487 -1296)">
    <path id="Subtraction_1" data-name="Subtraction 1" d="M2.109,15H0V3A3,3,0,0,1,3,0h7a3,3,0,0,1,3,3V15H10.891L9.056,9.912A2.8,2.8,0,0,0,6.385,8.14c-.1,0-.213,0-.322.014,0,0,0,0-.009,0a2.761,2.761,0,0,0-2.16,1.759C3.87,9.931,2.957,12.553,2.11,15Z" transform="translate(-4491 1296)"/>
    <path id="Path_14" data-name="Path 14" d="M-3569.934,2289.291l1.722,4.209h4.509l-3.564,3.178,1.417,4.209-4.083-2.362-4.076,2.662,1.288-4.509-3.564-3.178h4.638Z" transform="translate(-915.201 -981.187)"/>
  </g>
</svg>
