<svg xmlns="http://www.w3.org/2000/svg" width="36.791" height="27.965" viewBox="0 0 36.791 27.965">
  <path id="chat" d="M25.516,59.5H3.56A3.564,3.564,0,0,0,0,63.056V75.815a3.564,3.564,0,0,0,3.56,3.56h3.2l.068,3.215a1.188,1.188,0,0,0,1.9.923l5.488-4.137h11.3a3.564,3.564,0,0,0,3.56-3.56V63.056A3.564,3.564,0,0,0,25.516,59.5Zm-6.9,14.167H10.459a1.187,1.187,0,1,1,0-2.374h8.159a1.187,1.187,0,1,1,0,2.374Zm2.151-5.192H8.308a1.187,1.187,0,0,1,0-2.374H20.769a1.187,1.187,0,0,1,0,2.374Zm16.022,2v9.791a3.56,3.56,0,0,1-3.56,3.56h-3.2L29.967,86.3A1.189,1.189,0,0,1,28.78,87.46c-.469,0-.126.134-6.146-3.635h-5.2a3.545,3.545,0,0,1-2.366-.9,1.187,1.187,0,0,1,.788-2.075h10.8a4.169,4.169,0,0,0,4.169-4.169V68.1a1.187,1.187,0,0,1,1.187-1.187h1.224A3.56,3.56,0,0,1,36.791,70.474Z" transform="translate(0 -59.496)" fill="#2e303b"/>
</svg>
