<svg xmlns="http://www.w3.org/2000/svg" width="23.397" height="23.167" viewBox="0 0 23.397 23.167">
  <g id="interface_1_" data-name="interface (1)" transform="translate(0 -1.985)">
    <g id="Group_3108" data-name="Group 3108" transform="translate(0 1.985)">
      <path id="Path_111" data-name="Path 111" d="M231.952,12.492h-7.818a.581.581,0,0,1-.581-.581v-1.1a.581.581,0,0,1,.581-.581h4.531L222.2,3.757a.581.581,0,0,1,0-.821l.781-.781a.581.581,0,0,1,.821,0l6.469,6.469V4.093a.581.581,0,0,1,.581-.581h1.1a.581.581,0,0,1,.581.581v7.818A.581.581,0,0,1,231.952,12.492Z" transform="translate(-209.136 10.675)" fill="#fff"/>
      <path id="Path_112" data-name="Path 112" d="M3.868,10.226H8.4a.581.581,0,0,1,.581.581v1.1a.581.581,0,0,1-.581.581H.581A.581.581,0,0,1,0,11.911V4.093a.581.581,0,0,1,.581-.581h1.1a.581.581,0,0,1,.581.581V8.624L8.735,2.155a.581.581,0,0,1,.821,0l.781.781a.581.581,0,0,1,0,.821Z" transform="translate(0 10.675)" fill="#fff"/>
      <path id="Path_113" data-name="Path 113" d="M231.952,229.021h-1.1a.581.581,0,0,1-.581-.581v-4.531l-6.469,6.469a.581.581,0,0,1-.821,0l-.781-.781a.581.581,0,0,1,0-.821l6.469-6.469h-4.531a.581.581,0,0,1-.581-.581v-1.1a.581.581,0,0,1,.581-.581h7.818a.581.581,0,0,1,.581.581v7.818A.581.581,0,0,1,231.952,229.021Z" transform="translate(-209.136 -220.041)" fill="#fff"/>
      <path id="Path_114" data-name="Path 114" d="M9.556,230.378a.581.581,0,0,1-.821,0l-6.469-6.469v4.531a.581.581,0,0,1-.581.581H.581A.581.581,0,0,1,0,228.44v-7.818a.581.581,0,0,1,.581-.581H8.4a.581.581,0,0,1,.581.581v1.1a.581.581,0,0,1-.581.581H3.868l6.469,6.469a.581.581,0,0,1,0,.821Z" transform="translate(0 -220.041)" fill="#fff"/>
    </g>
  </g>
</svg>
