<svg xmlns="http://www.w3.org/2000/svg" width="27.502" height="20.627" viewBox="0 0 27.502 20.627">
  <path id="Icon_awesome-image" data-name="Icon awesome-image" d="M24.924,25.127H2.578A2.578,2.578,0,0,1,0,22.548V7.078A2.578,2.578,0,0,1,2.578,4.5H24.924A2.578,2.578,0,0,1,27.5,7.078v15.47A2.578,2.578,0,0,1,24.924,25.127ZM6.016,7.508a3.008,3.008,0,1,0,3.008,3.008A3.008,3.008,0,0,0,6.016,7.508ZM3.438,21.689H24.064V15.673l-4.7-4.7a.645.645,0,0,0-.912,0l-7.279,7.279L8.191,15.269a.645.645,0,0,0-.912,0L3.438,19.111Z" transform="translate(0 -4.5)"/>
</svg>
