<svg xmlns="http://www.w3.org/2000/svg" width="26.839" height="26.839" viewBox="0 0 26.839 26.839">
  <g id="interface" transform="translate(1.542 -0.459)">
    <g id="Group_3048" data-name="Group 3048" transform="translate(0 0.001)">
      <path id="Path_94" data-name="Path 94" d="M26.42,11.741c-.216-.136-1.909-1.15-2.581-1.457l-.834-2.013c.248-.665.721-2.532.795-2.856a.9.9,0,0,0-.24-.832l-1.3-1.3a.9.9,0,0,0-.832-.24c-.245.056-2.161.536-2.856.795L16.556,3C16.262,2.358,15.278.705,15.1.42A.894.894,0,0,0,14.341,0H12.5A.9.9,0,0,0,11.74.42C11.6.636,10.59,2.329,10.283,3L8.27,3.835C7.6,3.587,5.738,3.114,5.414,3.04a.9.9,0,0,0-.832.24l-1.3,1.3a.9.9,0,0,0-.24.832c.056.245.536,2.161.795,2.856L3,10.284c-.644.294-2.3,1.278-2.581,1.457A.894.894,0,0,0,0,12.5v1.844a.9.9,0,0,0,.419.758c.216.136,1.909,1.15,2.581,1.457l.834,2.013c-.248.665-.721,2.532-.795,2.856a.9.9,0,0,0,.24.832l1.3,1.3a.9.9,0,0,0,.832.24c.245-.056,2.161-.536,2.856-.795l2.013.834c.294.644,1.278,2.3,1.457,2.581a.9.9,0,0,0,.758.419h1.844a.9.9,0,0,0,.758-.419c.136-.216,1.15-1.909,1.457-2.581l2.013-.834c.665.248,2.532.721,2.856.795a.894.894,0,0,0,.832-.24l1.3-1.3a.9.9,0,0,0,.24-.832c-.056-.245-.536-2.161-.795-2.856l.834-2.013c.644-.294,2.3-1.278,2.581-1.457a.9.9,0,0,0,.419-.758V12.5A.9.9,0,0,0,26.42,11.741Zm-13,7.53a5.85,5.85,0,1,1,5.85-5.85A5.857,5.857,0,0,1,13.42,19.271Z" transform="translate(-1.542 0.457)" fill="#2e303b"/>
    </g>
  </g>
</svg>
