<?xml version="1.0" encoding="utf-8"?>
<!-- Generator: Adobe Illustrator 22.1.0, SVG Export Plug-In . SVG Version: 6.00 Build 0)  -->
<svg version="1.1" id="Layer_1" xmlns="http://www.w3.org/2000/svg" xmlns:xlink="http://www.w3.org/1999/xlink" x="0px" y="0px"
	 viewBox="0 0 27.7 27.7" style="enable-background:new 0 0 27.7 27.7;" xml:space="preserve">
<g id="Icon_feather-settings" transform="translate(-0.25 -0.25)">
	<g id="Path_107">
		<path d="M14.1,18.8c-2.6,0-4.7-2.1-4.7-4.7s2.1-4.7,4.7-4.7c2.6,0,4.7,2.1,4.7,4.7S16.7,18.8,14.1,18.8z M14.1,11.9
			c-1.2,0-2.2,1-2.2,2.2c0,1.2,1,2.2,2.2,2.2c1.2,0,2.2-1,2.2-2.2C16.3,12.9,15.3,11.9,14.1,11.9z"/>
	</g>
	<g id="Path_108">
		<path d="M14.2,28c-0.9,0-1.8-0.4-2.5-1c-0.7-0.7-1-1.6-1-2.5v-0.1c0-0.2-0.2-0.5-0.4-0.6c-0.3-0.1-0.6-0.1-0.8,0.1
			c-1.3,1.5-3.5,1.6-5,0.3c-1.5-1.3-1.6-3.5-0.3-5c0.1-0.1,0.2-0.2,0.3-0.3c0.1-0.1,0.2-0.3,0.2-0.5c0-0.2-0.1-0.3-0.2-0.5
			c-0.1-0.1-0.3-0.2-0.5-0.2H3.8c-2,0-3.5-1.6-3.5-3.5c0-0.9,0.4-1.8,1-2.5c0.7-0.7,1.6-1,2.5-1h0.1c0.2,0,0.5-0.2,0.6-0.4
			c0.1-0.3,0.1-0.6-0.1-0.8C3.6,8.8,3.2,8,3.2,7C3.1,6.1,3.4,5.2,4,4.4c0.6-0.7,1.5-1.1,2.4-1.2C7.4,3.2,8.3,3.5,9,4.1
			c0.1,0.1,0.2,0.2,0.3,0.3c0.2,0.2,0.5,0.2,0.7,0.1c0.1,0,0.1-0.1,0.2-0.1c0.2-0.1,0.3-0.3,0.3-0.5V3.8c0-2,1.6-3.5,3.5-3.5
			c0,0,0,0,0,0c2,0,3.5,1.6,3.5,3.5v0.1c0,0.2,0.1,0.3,0.2,0.5c0.1,0.1,0.3,0.2,0.5,0.2c0.2,0,0.3-0.1,0.5-0.2
			c0.6-0.7,1.5-1.1,2.4-1.2c0.9-0.1,1.9,0.3,2.6,0.9c0.7,0.6,1.1,1.5,1.2,2.4C25,7.4,24.7,8.3,24.1,9c-0.1,0.1-0.2,0.2-0.3,0.3
			c-0.2,0.2-0.2,0.5-0.1,0.7c0,0.1,0.1,0.1,0.1,0.2c0.1,0.2,0.3,0.3,0.5,0.3h0.2h0c2,0,3.5,1.6,3.5,3.5c0,2-1.6,3.5-3.5,3.5h-0.1
			c-0.3,0-0.5,0.2-0.6,0.4c0,0,0,0,0,0c-0.1,0.2,0,0.5,0.1,0.7c0.7,0.6,1.1,1.5,1.2,2.4c0.1,0.9-0.3,1.9-0.9,2.6
			c-0.6,0.7-1.5,1.1-2.4,1.2c-1,0.1-1.9-0.3-2.6-0.9c-0.1-0.1-0.2-0.2-0.3-0.3c-0.3-0.3-0.7-0.3-0.9,0c-0.1,0.1-0.2,0.3-0.2,0.5v0.2
			c0,0.9-0.4,1.8-1,2.5C16,27.6,15.2,28,14.2,28C14.2,28,14.2,28,14.2,28z M9.9,21.2c0.4,0,0.9,0.1,1.3,0.3c1.1,0.4,2,1.5,2,2.8
			c0,0,0,0.1,0,0.1c0,0.3,0.1,0.5,0.3,0.7c0.2,0.2,0.5,0.3,0.7,0.3c0,0,0,0,0,0c0.3,0,0.5-0.1,0.7-0.3c0.2-0.2,0.3-0.5,0.3-0.7v-0.2
			c0-0.8,0.3-1.6,0.9-2.2c0.6-0.6,1.4-0.9,2.2-1c0.8,0,1.6,0.3,2.2,0.9c0,0,0.1,0.1,0.1,0.1c0.1,0.1,0.1,0.1,0.1,0.1
			c0.4,0.4,1.1,0.3,1.5-0.1c0.4-0.4,0.3-1.1-0.1-1.5c0,0-0.1-0.1-0.1-0.1c-0.9-0.9-1.2-2.3-0.6-3.5c0,0,0,0,0-0.1
			c0.5-1.1,1.6-1.8,2.8-1.8h0.1c0.6,0,1-0.5,1-1c0-0.6-0.5-1-1-1c0,0,0,0,0,0h-0.2c-1.3,0-2.4-0.8-2.9-1.9c0-0.1-0.1-0.2-0.1-0.3
			c-0.4-1.1-0.1-2.4,0.7-3.2c0,0,0.1-0.1,0.1-0.1c0.1-0.1,0.1-0.1,0.2-0.2c0.4-0.4,0.3-1.1-0.1-1.5c-0.2-0.2-0.5-0.3-0.8-0.3
			c-0.3,0-0.5,0.1-0.7,0.4c0,0-0.1,0.1-0.1,0.1C19.9,6.7,19.2,7,18.3,7c0,0,0,0,0,0c-0.8,0-1.6-0.3-2.2-0.9
			c-0.6-0.6-0.9-1.4-0.9-2.2V3.8c0-0.6-0.5-1-1-1h0c-0.6,0-1,0.5-1,1V4c0,1.3-0.8,2.4-1.9,2.9c-0.1,0-0.2,0.1-0.3,0.1
			C9.7,7.4,8.5,7.1,7.6,6.2c0,0-0.1-0.1-0.1-0.1C7.5,6.1,7.4,6,7.4,6C7.2,5.8,6.9,5.7,6.6,5.7c-0.3,0-0.5,0.1-0.7,0.4
			C5.7,6.3,5.6,6.6,5.7,6.9S5.8,7.4,6,7.6c0,0,0.1,0.1,0.1,0.1C7,8.6,7.3,10,6.8,11.2c-0.4,1.1-1.5,2-2.8,2l-0.1,0
			c-0.3,0-0.5,0.1-0.7,0.3s-0.3,0.5-0.3,0.7c0,0.6,0.5,1,1,1H4c0.8,0,1.6,0.3,2.2,0.9c0.6,0.6,0.9,1.4,0.9,2.2
			c0,0.8-0.3,1.6-0.9,2.2c0,0-0.1,0.1-0.1,0.1C6.1,20.8,6,20.8,6,20.8c-0.4,0.4-0.3,1.1,0.1,1.5c0.4,0.4,1.1,0.3,1.5-0.1
			c0,0,0.1-0.1,0.1-0.1C8.3,21.5,9.1,21.2,9.9,21.2z"/>
	</g>
</g>
</svg>
