<svg xmlns="http://www.w3.org/2000/svg" width="20" height="20" viewBox="0 0 20 20"><defs><clipPath id="a"><path data-name="Clip 2" d="M0 0h8.463v8.535H0z" transform="translate(.537)" fill="none"/></clipPath><clipPath id="b"><path data-name="Clip 5" d="M0 0h20v20H0z" fill="none"/></clipPath></defs><g data-name="Group 7"><g data-name="Group 3"><path data-name="Clip 2" d="M11.537 0H20v8.535h-8.463z" fill="none"/><g data-name="Group 3" clip-path="url(#a)" transform="translate(11)"><path data-name="Fill 1" d="M3.076 0h3.385A2.55 2.55 0 019 2.56v3.416a2.549 2.549 0 01-2.538 2.559H3.076A2.548 2.548 0 01.537 5.977V2.561A2.55 2.55 0 013.075 0" fill="#fff"/></g></g><g data-name="Group 6"><path data-name="Clip 5" d="M0 0h20v20H0z" fill="none"/><g data-name="Group 6" clip-path="url(#b)"><path data-name="Fill 4" d="M17.462 20h-3.387a2.548 2.548 0 01-2.538-2.56v-3.414a2.547 2.547 0 012.537-2.56h3.388A2.548 2.548 0 0120 14.025v3.415A2.548 2.548 0 0117.462 20zM5.925 20H2.539A2.55 2.55 0 010 17.44v-3.414a2.552 2.552 0 012.539-2.56h3.386a2.548 2.548 0 012.538 2.559v3.415A2.548 2.548 0 015.925 20zm0-11.465H2.539A2.548 2.548 0 010 5.976V2.56A2.553 2.553 0 012.538 0h3.387a2.552 2.552 0 012.538 2.558v3.416a2.548 2.548 0 01-2.537 2.56z" fill="#4b4a5c"/></g></g></g></svg>